<svg width="33" height="25" viewBox="0 0 33 25" fill="none" xmlns="http://www.w3.org/2000/svg">
<path d="M32.3266 3.57679L12.3266 23.5768C12.1524 23.7516 11.9454 23.8903 11.7175 23.9849C11.4896 24.0796 11.2452 24.1283 10.9984 24.1283C10.7517 24.1283 10.5073 24.0796 10.2794 23.9849C10.0515 23.8903 9.8445 23.7516 9.67031 23.5768L0.920306 14.8268C0.745894 14.6524 0.607543 14.4453 0.513152 14.2174C0.418761 13.9896 0.370178 13.7453 0.370178 13.4987C0.370178 13.252 0.418761 13.0078 0.513152 12.7799C0.607543 12.552 0.745894 12.345 0.920306 12.1705C1.09472 11.9961 1.30177 11.8578 1.52965 11.7634C1.75753 11.669 2.00178 11.6204 2.24843 11.6204C2.49509 11.6204 2.73933 11.669 2.96721 11.7634C3.19509 11.8578 3.40214 11.9961 3.57656 12.1705L11 19.594L29.6734 0.923662C30.0257 0.571422 30.5034 0.373535 31.0016 0.373535C31.4997 0.373535 31.9774 0.571422 32.3297 0.923662C32.6819 1.2759 32.8798 1.75364 32.8798 2.25179C32.8798 2.74993 32.6819 3.22767 32.3297 3.57991L32.3266 3.57679Z" fill="#4DC83E"/>
</svg>
