<svg width="56" height="56" viewBox="0 0 56 56" fill="none" xmlns="http://www.w3.org/2000/svg">
<rect width="56" height="56" rx="28" fill="#92C83E"/>
<path d="M41.9998 30.3287H30.3332V41.9953C30.3332 42.6142 30.0873 43.2076 29.6498 43.6452C29.2122 44.0828 28.6187 44.3287 27.9998 44.3287C27.381 44.3287 26.7875 44.0828 26.3499 43.6452C25.9123 43.2076 25.6665 42.6142 25.6665 41.9953V30.3287H13.9998C13.381 30.3287 12.7875 30.0828 12.3499 29.6452C11.9123 29.2077 11.6665 28.6142 11.6665 27.9953C11.6665 27.3765 11.9123 26.783 12.3499 26.3454C12.7875 25.9078 13.381 25.662 13.9998 25.662H25.6665V13.9953C25.6665 13.3765 25.9123 12.783 26.3499 12.3454C26.7875 11.9078 27.381 11.662 27.9998 11.662C28.6187 11.662 29.2122 11.9078 29.6498 12.3454C30.0873 12.783 30.3332 13.3765 30.3332 13.9953V25.662H41.9998C42.6187 25.662 43.2122 25.9078 43.6498 26.3454C44.0873 26.783 44.3332 27.3765 44.3332 27.9953C44.3332 28.6142 44.0873 29.2077 43.6498 29.6452C43.2122 30.0828 42.6187 30.3287 41.9998 30.3287Z" fill="white"/>
</svg>
