<svg width="80" height="81" viewBox="0 0 80 81" fill="none" xmlns="http://www.w3.org/2000/svg">
<g clip-path="url(#clip0_26_66)">
<path d="M13.5312 0.65625C12.5469 0.90625 11.1406 1.75 10.4531 2.48438C10.1094 2.85938 9.59375 3.64062 9.32812 4.21875C8.875 5.17188 8.82812 5.40625 8.82812 6.75C8.82812 8.10938 8.875 8.32812 9.34375 9.32812C9.79688 10.2969 10.2656 10.8125 13.3281 13.9062L16.7969 17.375L15.3594 18.8281C13.6562 20.5312 13.2969 21.2188 13.2812 22.7031C13.2812 24.3281 13.625 24.8438 16.9219 28.125C19.5 30.6875 19.8438 30.9688 20.3125 30.9688C20.7969 30.9688 21.1562 30.6562 24.2188 27.6094L27.5781 24.25L37.8906 34.5625C47.6406 44.3125 48.2344 44.875 48.7656 44.875C49.2656 44.875 49.5 44.6719 51.4688 42.6875C53.5469 40.5938 53.625 40.4844 53.5312 40C53.4531 39.5781 51.5 37.5625 43.1719 29.2188L32.8906 18.9375L36.0625 15.7656C38.9219 12.8906 39.2188 12.5469 39.2188 12.0625C39.2188 11.5938 38.9375 11.25 36.375 8.67188C33.0938 5.375 32.5781 5.03125 30.9531 5.03125C29.4688 5.04688 28.7812 5.40625 27.0781 7.10938L25.625 8.54688L22.1562 5.07812C19.0938 2.03125 18.5469 1.54688 17.6094 1.125C16.7812 0.734375 16.2969 0.609375 15.3438 0.5625C14.6875 0.53125 13.875 0.578125 13.5312 0.65625ZM16.1562 3.1875C16.6875 3.34375 17.4844 4.04688 20.7812 7.3125C22.9688 9.48438 24.9531 11.3281 25.1875 11.4219C25.4219 11.5156 25.75 11.5469 25.8906 11.4844C26.0469 11.4375 27.0625 10.5156 28.1562 9.45312C30.125 7.53125 30.125 7.53125 30.875 7.53125H31.625L33.8906 9.79688L36.1719 12.0625L28.2344 19.9844L20.3125 27.9219L18.0469 25.6406L15.7812 23.375V22.6094V21.8594L19.5312 18.0781C23.5469 14.0312 23.6094 13.9375 22.9531 13.0938C22.7188 12.7812 22.5 12.6875 22.0625 12.6875C21.5469 12.6875 21.3438 12.8438 20.0469 14.125L18.5938 15.5781L15.2344 12.2188C13.3906 10.375 11.7656 8.625 11.625 8.3125C10.9375 6.875 11.2188 5.34375 12.4062 4.17188C13.5156 3.0625 14.6875 2.76562 16.1562 3.1875ZM40.8594 30.5L50.5469 40.1875L49.6875 41.0469L48.8281 41.9062L39.1094 32.1875L29.375 22.4531L30.1875 21.6406C30.6406 21.1875 31.0469 20.8125 31.0938 20.8125C31.1406 20.8125 35.5312 25.1719 40.8594 30.5Z" fill="#377D3C"/>
<path d="M61.2031 20.375C60.9844 20.5781 60.5156 21.5 60.1406 22.4531C59 25.4062 58.5937 25.8125 55.6094 27C54.625 27.3906 53.7031 27.8281 53.5625 27.9531C53.1875 28.2969 53.1875 29.2812 53.5781 29.625C53.7344 29.7656 54.6562 30.2031 55.625 30.5781C58.5469 31.7187 59 32.1875 60.1406 35.1094C60.8437 36.9062 61.3125 37.5312 61.9531 37.5312C62.6094 37.5312 63.0781 36.9062 63.8281 35C64.9531 32.1875 65.4375 31.7031 68.2656 30.5937C70.2656 29.8125 70.6719 29.5 70.6719 28.7812C70.6719 28.0781 70.2656 27.75 68.4531 27.0469C66.3125 26.2187 66.125 26.1094 65.4219 25.3906C64.7344 24.7187 64.3437 24 63.5937 22.0156C62.875 20.0937 62.0781 19.5625 61.2031 20.375ZM63.6094 27.1562C63.9375 27.5 64.5781 27.9844 65 28.25C65.4219 28.5 65.7812 28.7344 65.7812 28.7812C65.7812 28.8281 65.4219 29.0625 65 29.3125C64 29.9062 63.125 30.8125 62.4531 31.9375L61.9219 32.8125L61.5781 32.1094C61.1406 31.1875 59.9219 29.9219 58.9219 29.3281C58.4844 29.0625 58.125 28.8281 58.125 28.7812C58.125 28.7344 58.4844 28.4844 58.9219 28.2344C59.9219 27.6406 61.1406 26.375 61.5781 25.4531L61.9219 24.75L62.4531 25.625C62.75 26.1094 63.2656 26.7969 63.6094 27.1562Z" fill="#377D3C"/>
<path d="M30.0625 49.1719C29.8594 49.2969 29.4375 50.1562 29 51.2656C27.8281 54.2656 27.2969 54.7969 24.1875 55.9844C22.4219 56.6719 22.0312 56.9844 22.0312 57.6875C22.0312 58.3906 22.4219 58.7031 24.1875 59.3906C27.2969 60.5781 27.8281 61.1094 29 64.1094C29.7656 66.0625 30.0625 66.4375 30.8281 66.4375C31.4844 66.4375 31.875 65.8906 32.6406 63.875C33.6719 61.125 34.25 60.5781 37.3281 59.4062C38.8906 58.7969 39.125 58.6562 39.3438 58.2031C39.5625 57.7344 39.5625 57.6406 39.3438 57.1719C39.125 56.7188 38.8906 56.5781 37.3281 55.9688C34.25 54.7969 33.6719 54.25 32.6406 51.5C32.2656 50.5156 31.7969 49.5312 31.6094 49.3125C31.2188 48.875 30.5469 48.8125 30.0625 49.1719ZM31.1875 54.4375C31.5625 55.2969 33.1719 56.9062 34.0312 57.2812C34.3906 57.4375 34.6875 57.625 34.6875 57.6875C34.6875 57.75 34.3906 57.9375 34.0312 58.0938C33.6562 58.25 32.9375 58.8125 32.4219 59.3281C31.9062 59.8438 31.3438 60.5625 31.1875 60.9219C31.0312 61.2969 30.8438 61.5938 30.7969 61.5938C30.75 61.5938 30.5312 61.2656 30.3281 60.875C29.8281 59.9375 28.5312 58.6406 27.6094 58.1562C27.2031 57.9375 26.875 57.7344 26.875 57.6875C26.875 57.6406 27.2031 57.4375 27.6094 57.2188C28.5312 56.7344 29.8281 55.4375 30.3281 54.5C30.5312 54.1094 30.75 53.7812 30.7969 53.7812C30.8438 53.7812 31.0312 54.0781 31.1875 54.4375Z" fill="#377D3C"/>
<path d="M51.8125 50.2188C51.25 50.75 43 65.1875 42.5156 66.4844C42.1563 67.5 42.1094 67.8281 42.1094 69.875C42.1094 71.9375 42.1563 72.2344 42.5313 73.2813C43.1406 74.9531 43.8438 76.0469 45.1563 77.375C46 78.2188 46.6875 78.7344 47.5781 79.2031C49.5156 80.2031 50.3906 80.4062 52.6563 80.4062C54.375 80.4062 54.75 80.3594 55.8594 79.9688C59.3594 78.7656 62.0156 75.9063 62.9219 72.375C63.4531 70.25 63.1719 67.4844 62.2031 65.4219C61.4063 63.7188 53.75 50.5781 53.3438 50.2188C53.125 50.0313 52.7813 49.875 52.5781 49.875C52.375 49.875 52.0313 50.0313 51.8125 50.2188ZM56.25 59.9531C60.125 66.6719 60.4063 67.25 60.6094 68.7031C61.1406 72.5313 58.9063 76.2188 55.2344 77.5469C54.4844 77.8281 53.9375 77.8906 52.5781 77.9063C51.0313 77.9063 50.75 77.8594 49.7656 77.4688C48.375 76.8906 47.5781 76.3438 46.625 75.2969C45.1563 73.6875 44.5313 72.0156 44.5313 69.7188C44.5313 68.7656 44.6406 68.1094 44.8906 67.375C45.0781 66.8125 46.8906 63.5 48.9063 60.0156C51.9375 54.75 52.6094 53.7031 52.75 53.9219C52.8438 54.0625 54.4219 56.7656 56.25 59.9531Z" fill="#377D3C"/>
</g>
<defs>
<clipPath id="clip0_26_66">
<rect width="80" height="80" fill="white" transform="translate(0 0.5)"/>
</clipPath>
</defs>
</svg>
