<svg width="80" height="81" viewBox="0 0 80 81" fill="none" xmlns="http://www.w3.org/2000/svg">
<path d="M61.25 4.92183C54.7656 8.18745 49.0469 12.6718 44.7969 17.8125C43.8125 18.9843 43.5938 19.3593 43.5938 19.7968C43.5938 20.1718 43.7031 20.4062 44 20.6406C44.6875 21.1875 45.2656 21 46.0469 19.9843C47.7031 17.8125 51.1094 14.4843 53.6562 12.5L54.9062 11.5312L53.5312 13.2187C46.6562 21.7031 43.5156 31.9374 44.1875 43.6093C44.375 46.6874 44.7969 50.3906 45.2344 52.6562C45.6719 54.8281 45.7656 55.9531 45.6094 57.0312C45.3281 59.0156 44.0781 60.9531 42.5625 61.7812C40.2969 62.9999 37.8594 62.5468 36.1094 60.5624C34.0937 58.2812 33.6094 55.0937 34.3594 49.3281C35.5781 40.125 38.1875 32.1406 42.0938 25.6562C42.9375 24.2656 43.0156 23.6562 42.4062 23.1718C41.9375 22.7968 41.4531 22.7656 41.0625 23.0625C40.25 23.6718 37.3594 29.3281 35.8906 33.1562C32.7187 41.4374 30.8594 53.0937 32.0156 57.4531C33.4844 63.0156 37.9062 65.9531 42.4688 64.3906C45.5156 63.3437 47.6875 60.3281 48.0312 56.6718C48.125 55.8124 48.0469 54.9999 47.6719 52.8437C46.9844 48.8906 46.7344 46.7968 46.5625 43.5468C46.125 35.6562 47.4688 28.5 50.5469 22.2812C53.25 16.7968 57.2812 11.875 62.75 7.3437C64.8438 5.62495 65.1719 5.18745 64.8438 4.56245C64.6406 4.18745 64.0781 3.7812 63.75 3.7812C63.625 3.7812 62.5 4.29683 61.25 4.92183Z" fill="#377D3C"/>
<path d="M17.0625 15.9219C16.8125 16.0156 14.1406 19.5937 12.5781 21.9062C10.2344 25.3906 8.60937 28.4219 7.78125 30.8594C6.85937 33.5156 7.1875 36.3437 8.70312 38.9219C9.4375 40.1562 11.0469 41.7969 12.2344 42.5156C15.5625 44.4844 19.7812 44.4844 23.0781 42.5C24.9375 41.3906 26.7656 39.1094 27.4844 37.0156C27.9062 35.8125 28.1719 33.7812 27.9844 33.2812C27.7812 32.75 27.4062 32.4844 26.8594 32.4844C26.1094 32.4844 25.8125 32.9219 25.6406 34.3281C25.3125 37.0156 24.125 38.9687 21.9688 40.375C17.9531 42.9687 12.4375 41.375 10.3906 37.0156C9.70312 35.5625 9.4375 33.9687 9.6875 32.7344C10.0937 30.75 11.4844 27.9375 13.875 24.25C15.1406 22.2812 17.5312 18.9375 17.6562 18.9531C17.9375 18.9687 22.0156 25.0625 23.3281 27.4062C24.4375 29.3906 24.8906 29.7969 25.6094 29.3906C25.8281 29.2656 26.1094 28.9687 26.25 28.7344C26.4688 28.3281 26.4531 28.25 25.7812 26.9531C24.4531 24.4219 20.0938 17.9375 18.6094 16.3125C18.1562 15.8281 17.625 15.6875 17.0625 15.9219Z" fill="#377D3C"/>
<path d="M67.3125 19.8283C65.4844 21.8439 62.8906 26.1252 62.2813 28.1408C61.4531 30.922 62.8906 33.8908 65.7031 35.2033C69.5781 37.0314 74.1406 34.2814 74.3437 30.0002C74.4219 28.6252 74.2031 27.8127 73.2812 25.9689C72.3594 24.1408 69.8125 20.3908 69.0312 19.672C68.5469 19.2658 67.7812 19.3283 67.3125 19.8283ZM69.4844 24.2033C72.2812 28.4377 72.6719 30.2658 71.1562 32.047C69.3906 34.0939 66.2656 33.8127 64.8906 31.4845C64.5312 30.8752 64.4531 30.547 64.4531 29.7189C64.4531 28.8595 64.5469 28.5158 65.0312 27.5158C65.6719 26.2189 68.0469 22.5314 68.2344 22.5314C68.3125 22.5314 68.8594 23.2814 69.4844 24.2033Z" fill="#377D3C"/>
<path d="M17.0625 29.0469C16.6719 29.2032 16.4062 30.0157 16.4062 31.0938V32.1876L15.0625 32.2344C13.875 32.2969 13.6875 32.3438 13.4219 32.6719C13.0312 33.1407 13.0469 33.6407 13.4531 34.1563C13.75 34.5313 13.8594 34.5626 15.0781 34.5626H16.375L16.4219 35.9063C16.4844 37.1407 16.5156 37.2657 16.9219 37.6251C17.4531 38.0782 17.7969 38.0938 18.3281 37.6876C18.7031 37.3907 18.7344 37.2501 18.7812 36.0001L18.8281 34.6407L20.1875 34.5938C21.4375 34.5469 21.5781 34.5157 21.875 34.1407C22.2344 33.6876 22.25 33.4844 22.0156 32.9532C21.7656 32.4063 21.2344 32.2188 19.9219 32.2188H18.75V30.8907C18.75 29.7657 18.7031 29.5157 18.4375 29.2501C18.1406 28.9532 17.5156 28.8594 17.0625 29.0469Z" fill="#377D3C"/>
<path d="M56.2812 33.547C55.7812 33.9689 54.25 36.1408 53.4687 37.5314C52.3125 39.5783 52.1719 41.0158 52.9687 42.6408C55.0781 46.922 61.6094 45.422 61.6406 40.6564C61.6406 39.7814 61.5469 39.4533 60.9844 38.2658C60.3125 36.8595 58.7344 34.4533 57.9687 33.6251C57.4375 33.047 56.9062 33.0314 56.2812 33.547ZM58.9375 39.3751C59.4531 40.4533 59.4531 40.9845 58.9219 41.8439C57.8437 43.6251 54.8437 42.797 54.8437 40.7189C54.8437 39.9376 55.25 39.0314 56.3594 37.3126L57.0625 36.2189L57.7656 37.3126C58.1562 37.9064 58.6875 38.8283 58.9375 39.3751Z" fill="#377D3C"/>
<path d="M2.73437 48.8594L2.34375 49.2344V62.75C2.34375 70.1719 2.39062 76.375 2.4375 76.5156C2.70312 77.1875 3.03125 77.2188 10.6719 77.2188C17.7812 77.2188 17.9375 77.2188 18.3437 76.8906C18.8594 76.4844 18.9062 75.6562 18.4375 75.1875C18.1406 74.8906 17.9219 74.875 11.4062 74.875H4.6875V62.8438V50.8125H15.3125H25.9531L25.8437 52.7344C25.5 58.9531 27.8906 64.7656 32.0781 67.9375C33.2656 68.8438 35.4844 69.9062 36.9531 70.2812C38.5312 70.6875 41.6875 70.6562 43.3281 70.2188C50.3125 68.3281 54.8594 61.0469 53.6719 53.625C53.5312 52.7188 53.375 51.7188 53.3281 51.3906L53.2344 50.8125H57.7969H62.3594L62.7344 50.4219C63.2344 49.9375 63.2344 49.3438 62.7344 48.8594L62.3594 48.4688H56.875H51.3906L51.0156 48.8594C50.5312 49.3281 50.5312 49.3438 51.0156 51.9219C51.5469 54.7969 51.625 55.9844 51.4219 57.5938C51.0312 60.5156 49.8594 62.8594 47.75 64.9531C45.4375 67.25 43.125 68.2188 40 68.2188C38.0937 68.2188 36.8437 67.9219 35.2656 67.125C31.375 65.1719 28.875 61.1875 28.2656 55.9531C28.125 54.6562 28.125 53.7969 28.2812 51.7656L28.4844 49.2031L28.0625 48.8281L27.6406 48.4688H15.375H3.10937L2.73437 48.8594Z" fill="#377D3C"/>
<path d="M65.875 48.7969C65.3594 49.2032 65.3125 50.0313 65.7812 50.5001C66.0781 50.7969 66.2969 50.8126 70.7031 50.8126H75.3125V62.8438V74.8751H48.8281C22.5469 74.8751 22.3437 74.8751 22.0312 75.1876C21.5625 75.6563 21.6094 76.4844 22.125 76.8907L22.5469 77.2188H49.5625C78.3906 77.2188 77.2812 77.2501 77.5625 76.5157C77.6094 76.3751 77.6562 70.1719 77.6562 62.7501V49.2344L77.2656 48.8594L76.8906 48.4688H71.5937C66.4687 48.4688 66.2812 48.4844 65.875 48.7969Z" fill="#377D3C"/>
</svg>
