<svg width="24" height="24" viewBox="0 0 24 24" fill="none" xmlns="http://www.w3.org/2000/svg">
<path d="M23.8443 0.150595C23.7295 0.0357968 23.5678 -0.0163444 23.4061 0.00449255C23.1713 0.0357968 22.8582 0.0723348 22.4773 0.114057C19.2008 0.474057 10.5035 1.43926 5.66172 6.3958C0.214783 11.9732 2.39043 16.6062 4.16954 18.8705C4.23215 18.954 4.31564 19.048 4.40432 19.147C4.09128 19.6166 2.84434 21.3331 0.23562 23.0392C-0.00439569 23.1957 -0.072189 23.5192 0.0843323 23.7644C0.240854 24.0044 0.564315 24.0722 0.809564 23.9157C3.31914 22.2722 4.64434 20.6288 5.1452 19.914C5.28607 20.0496 5.41652 20.1697 5.51562 20.2636C6.27216 20.9366 8.12953 22.314 10.6756 22.314C12.6791 22.314 15.1051 21.4636 17.7556 18.7506C22.6548 13.7366 23.5678 4.73667 23.9121 1.35058C23.9434 1.03753 23.9695 0.781866 23.9956 0.59404C24.0165 0.421866 23.9591 0.265345 23.8443 0.150595ZM22.8791 1.23578C22.5764 4.20968 21.6582 13.2566 17.0148 18.0096C11.7869 23.3627 7.72262 20.8166 6.21478 19.4757C6.08957 19.3661 5.93304 19.2148 5.77129 19.0531C6.24609 18.4218 6.76261 17.6914 7.34174 16.8722C10.2739 12.74 14.7035 6.50008 19.7956 4.65831C20.0669 4.55917 20.2078 4.26177 20.1086 3.9905C20.0095 3.71918 19.7121 3.57831 19.4408 3.67746C14.0356 5.63398 9.6739 11.7853 6.4861 16.2774C5.95393 17.0287 5.47913 17.6965 5.04087 18.2861C5.02522 18.2652 5.00433 18.2444 4.99392 18.2288C3.07394 15.7923 1.76434 11.8844 6.41303 7.1314C10.9887 2.43576 19.4199 1.50186 22.5921 1.15228L22.8895 1.12098C22.8843 1.15752 22.8791 1.19929 22.8791 1.23578Z" fill="#377D3C"/>
</svg>
