<svg width="22" height="14" viewBox="0 0 22 14" fill="none" xmlns="http://www.w3.org/2000/svg">
<path fill-rule="evenodd" clip-rule="evenodd" d="M21.5001 7.00003C21.5001 6.80112 21.4211 6.61035 21.2805 6.4697C21.1398 6.32905 20.949 6.25003 20.7501 6.25003L3.06062 6.25003L7.78112 1.53103C7.92195 1.3902 8.00107 1.19919 8.00107 1.00003C8.00107 0.800866 7.92195 0.609859 7.78112 0.469029C7.64029 0.328199 7.44928 0.249083 7.25012 0.249083C7.05096 0.249083 6.85995 0.328199 6.71912 0.469029L0.71912 6.46903C0.649275 6.5387 0.593861 6.62146 0.556051 6.71258C0.518241 6.8037 0.498779 6.90138 0.498779 7.00003C0.498779 7.09868 0.518241 7.19636 0.556051 7.28748C0.593861 7.3786 0.649275 7.46136 0.71912 7.53103L6.71912 13.531C6.78885 13.6008 6.87163 13.6561 6.96274 13.6938C7.05385 13.7316 7.1515 13.751 7.25012 13.751C7.44928 13.751 7.64029 13.6719 7.78112 13.531C7.92195 13.3902 8.00107 13.1992 8.00107 13C8.00107 12.8009 7.92195 12.6099 7.78112 12.469L3.06062 7.75003L20.7501 7.75003C20.949 7.75003 21.1398 7.67101 21.2805 7.53036C21.4211 7.38971 21.5001 7.19894 21.5001 7.00003Z" fill="#377D3C"/>
</svg>
