<svg width="80" height="81" viewBox="0 0 80 81" fill="none" xmlns="http://www.w3.org/2000/svg">
<g clip-path="url(#clip0_24_12)">
<path d="M67.0156 3.1406C57.2187 11.3125 47.7969 29.6719 47.0469 42.0625C46.9062 44.4375 47.0937 47.0469 47.5 48.3281C47.9375 49.75 48.8906 51.1406 49.9687 51.9062C52.375 53.6406 55.7187 53.2812 57.8594 51.0781C60.0312 48.8594 60.375 46.5 59.9375 37.0156C59.6406 30.7187 59.625 28.2656 59.8437 25.3437C60.5156 16.0781 63.2031 9.8906 68.6875 4.87498L69.9687 3.71873L69.6875 3.31248C69.5312 3.09373 69.2031 2.68748 68.9531 2.40623L68.5156 1.87498L67.0156 3.1406ZM58.5156 18.1562C57.8281 21.0156 57.3437 25.5937 57.3437 29.3281C57.3437 30.3594 57.4531 33.9844 57.5937 37.375C57.9687 46.1406 57.7656 47.875 56.1719 49.4844C55.0156 50.6406 53.2812 50.9844 51.9531 50.3437C50.3437 49.5781 49.625 48.2344 49.3906 45.6094C48.9062 39.7187 51.1562 31.1719 55.4687 22.6094C56.6406 20.2812 58.75 16.5469 58.8437 16.6406C58.8594 16.6562 58.7187 17.3437 58.5156 18.1562Z" fill="#377D3C"/>
<path d="M34.625 14.4843C29.6719 19.4375 24.8438 27.375 21.625 35.8125C21.25 36.7968 20.9375 37.6875 20.9375 37.7968C20.9375 37.9687 22.4531 38.625 22.875 38.625C23 38.625 23.2656 38.0937 23.5156 37.4062C24.5781 34.4843 27.8125 27.5 27.5938 28.625C27.1094 31.1406 26.9688 33.0312 26.9844 36.9843C26.9844 41.3437 27.0938 42.7187 28.0625 50.7343C28.3125 52.875 28.4688 55.0781 28.4844 56.5937C28.5 58.75 28.4688 59.1093 28.1562 59.875C27.4531 61.6406 26.0469 62.6875 24.4219 62.6875C22.3906 62.6875 21.0312 61.3437 20.3594 58.6718C19.9844 57.1562 19.9844 51.8906 20.3594 49.4062C20.6562 47.4843 21.5312 43.5468 22.0156 41.9531L22.3125 40.9687L21.2187 40.6406C20.625 40.4687 20.1094 40.3437 20.0781 40.375C19.9531 40.5 19.0312 43.9687 18.6562 45.7187C17.4844 51.3125 17.3437 56.8437 18.3125 60.0156C19.2031 62.9843 21.3594 64.8593 24 65C27.4688 65.1875 30.2656 62.6718 30.7969 58.8593C31.0156 57.2812 30.8906 55.0468 30.2969 49.7968C29.4062 41.9687 29.3281 40.9687 29.3125 36.9843C29.2969 32.9843 29.4375 31.3906 30 28.6406C31.0469 23.625 33.2344 19.3906 36.625 15.8437L37.7812 14.6406L37.0625 13.8125C36.6562 13.3593 36.2812 13 36.2188 13C36.1562 13 35.4375 13.6718 34.625 14.4843Z" fill="#377D3C"/>
<path d="M40.0312 21.3281L37.9687 23.3906L38.7969 24.2188L39.6094 25.0312L40.2812 24.375L40.9375 23.7031V30.5469V37.375H42.1094H43.2812V30.5469V23.7188L43.9531 24.375L44.625 25.0312L45.4375 24.2031L46.25 23.3906L44.1719 21.3125L42.1094 19.25L40.0312 21.3281Z" fill="#377D3C"/>
<path d="M65.8125 21.3281L63.75 23.3906L64.5781 24.2188L65.3906 25.0312L66.0625 24.375L66.7188 23.7031V30.5469V37.375H67.8906H69.0625V30.5469V23.7188L69.7344 24.375L70.4063 25.0312L71.2188 24.2031L72.0313 23.3906L69.9531 21.3125L67.8906 19.25L65.8125 21.3281Z" fill="#377D3C"/>
<path d="M2.46874 48.8437C1.31249 49.25 0.546865 50.0156 0.171865 51.1094C0.0468645 51.4844 -1.04904e-05 55.5156 -1.04904e-05 65.3594V79.0938H35.3125H70.625V77.9219V76.75H36.4844H2.34374V67.375V58H7.71874H13.0937L13.1875 58.4219C13.2344 58.6719 13.3437 59.2969 13.4375 59.8281C14.1094 63.7031 16.4687 67.0625 19.5781 68.5937C21.3594 69.4531 22.2187 69.6406 24.4531 69.6406C26.2656 69.625 26.625 69.5781 27.7344 69.1875C30.7812 68.1406 32.9844 66.2031 34.3125 63.3906C34.8906 62.1875 35.4687 60.125 35.4687 59.2656C35.4687 58.9531 35.5156 58.5469 35.5625 58.3437C35.6562 58 35.6719 58 39.0625 58H42.4687L42.5781 58.8906C42.875 61.3281 44.0312 64.1875 45.3594 65.7969C48 68.9687 52.2656 70.3906 56.1875 69.4062C60.1562 68.4062 63.2656 65.3906 64.3594 61.4531C64.5312 60.8281 64.7187 59.7812 64.7812 59.1562L64.8906 58H71.2656H77.6562V67.375V76.75H75.3125H72.9687V77.9219V79.0938H76.4844H80V65.4062C80 55.5937 79.9531 51.5469 79.8281 51.1094C79.5781 50.3281 78.875 49.4687 78.0781 49.0469C77.4219 48.7031 77.3437 48.7031 69.625 48.6562L61.8281 48.6094L61.9375 49.5156C62.6094 55.1562 62.6875 58.3125 62.1875 60.2812C61.0937 64.6562 57.7969 67.375 53.625 67.375C51.5312 67.375 49.5781 66.6094 48.0469 65.1562C45.8594 63.125 45.0312 60.9687 44.6875 56.4375C44.5469 54.4844 44.6562 51.2344 44.9375 49.2812L45.0312 48.625H38.7656H32.5156L32.5781 49.0469C32.9844 51.5156 33.3281 56.4687 33.2187 58.0469C33.0156 61.0156 32.1406 63.0937 30.3281 64.875C28.6094 66.5937 26.7344 67.375 24.375 67.375C19.9219 67.375 16.6875 64.3125 15.6875 59.1562C15.375 57.5781 15.2969 52.9531 15.5312 50.2187L15.6562 48.625H9.35936C4.49999 48.6406 2.90624 48.6875 2.46874 48.8437ZM13.0625 51.5469C13.0156 51.875 12.9687 52.9375 12.9687 53.8906V55.6562H7.65624H2.34374V53.7656C2.34374 51.7969 2.45311 51.3594 3.01561 51.125C3.20311 51.0469 5.56249 50.9844 8.26561 50.9844L13.1719 50.9687L13.0625 51.5469ZM42.3125 53.3125L42.2656 55.6562H38.9531C35.1094 55.6562 35.5469 55.9375 35.3906 53.4687C35.3437 52.6562 35.2656 51.75 35.2187 51.4687L35.125 50.9687H38.7344H42.3594L42.3125 53.3125ZM77.3594 51.4219C77.6094 51.7344 77.6562 52.0469 77.6562 53.7187V55.6562H71.2812H64.8906L64.7187 53.5781C64.6094 52.4531 64.5312 51.3906 64.5312 51.2344C64.5312 50.9687 64.875 50.9531 70.7969 51L77.0625 51.0469L77.3594 51.4219Z" fill="#377D3C"/>
<path d="M72.9688 61.5156V62.6875H74.1406H75.3125V61.5156V60.3438H74.1406H72.9688V61.5156Z" fill="#377D3C"/>
<path d="M72.9688 66.2031V67.375H74.1406H75.3125V66.2031V65.0312H74.1406H72.9688V66.2031Z" fill="#377D3C"/>
</g>
<defs>
<clipPath id="clip0_24_12">
<rect width="80" height="80" fill="white" transform="translate(0 0.5)"/>
</clipPath>
</defs>
</svg>
