<svg width="80" height="81" viewBox="0 0 80 81" fill="none" xmlns="http://www.w3.org/2000/svg">
<g clip-path="url(#clip0_26_47)">
<path d="M34.6875 0.984474C29.2969 1.71885 23.2813 5.6876 19.9531 10.7032C17.7813 13.9688 16.1406 18.797 15.6094 23.4532C15.3906 25.4376 15.5156 30.1876 15.8125 31.547C16.0156 32.4532 16.0156 32.6095 15.6875 33.8907C14.9688 36.6563 15.3438 38.9688 16.6094 39.7188C17.0625 39.9845 17.1563 40.1407 17.3125 41.0001C17.8438 43.8126 20.5 46.6876 23.0781 47.2188C23.7656 47.3751 23.9531 47.4845 24.0938 47.8126C25.875 52.2345 28.2188 55.1407 32.1875 57.8438C33.125 58.4688 33.125 58.4845 33.125 59.2345C33.125 61.0938 32.4688 63.1876 31.4688 64.4845C30.5781 65.6563 27.7031 67.0626 23.8281 68.2345C21.625 68.8907 18.8125 70.0001 17.1406 70.8438C14.5 72.1876 12.2813 74.7813 10.7188 78.297C10.3125 79.2188 10.2813 79.3438 10.4844 79.7032C10.7344 80.1407 11.0781 80.2657 11.625 80.1251C11.8906 80.0626 12.125 79.7345 12.4844 78.922C13.1563 77.3907 14.5156 75.3907 15.6719 74.2188C17.1719 72.7032 18.7813 71.922 23.9063 70.2032C29.4219 68.3438 31.0312 67.5938 32.4219 66.1876C33.7969 64.7813 34.6719 62.7813 34.9375 60.4063L35.0312 59.4376L35.9375 59.8126C37.2344 60.3282 39.1719 60.8126 40 60.8126C40.8281 60.8126 42.7344 60.3438 44.0312 59.8282L44.9219 59.4688L45.2031 61.1095C45.8281 64.8438 47.5469 66.9376 51.25 68.4532C52.0625 68.7813 54.2188 69.547 56.0156 70.1563C60 71.4845 61.5938 72.1563 62.9844 73.0938C64.5938 74.1563 66.4688 76.547 67.5156 78.8907C67.7812 79.4688 68.0781 80.0001 68.1719 80.0626C68.5781 80.3282 69.2031 80.1876 69.4688 79.7813C69.7188 79.4063 69.7188 79.3438 69.375 78.5001C68.5 76.3126 66.375 73.3126 64.7969 72.047C63.5469 71.0313 60.5938 69.7188 56.6406 68.3907C50.7344 66.3907 49.2969 65.6563 48.2188 64.0157C47.375 62.7345 46.875 60.9532 46.875 59.2345V58.5001L48.3906 57.4376C50.3125 56.0626 52.5312 53.8907 53.5781 52.3282C54.2812 51.2813 55.3438 49.2345 55.9062 47.8126C56.0469 47.4845 56.2344 47.3751 56.9219 47.2188C59.5 46.6876 62.1562 43.8126 62.6875 41.0001C62.8438 40.1407 62.9375 39.9845 63.3906 39.7188C64.6562 38.9688 65.0312 36.6563 64.3125 33.8907C63.9844 32.5782 63.9688 32.4688 64.2031 31.4688C64.5625 29.9063 64.5469 23.7657 64.1719 21.7501C62.5781 13.1251 59.0625 7.64072 52.6719 3.76572C50.6406 2.53135 49.0781 1.85947 47.0469 1.32822C45.125 0.828224 42.75 0.781349 41.25 1.20322C40.0156 1.54697 39.9844 1.54697 38.8906 1.23447C37.7344 0.921974 35.9375 0.812599 34.6875 0.984474ZM37.4844 2.85947C38.0469 2.9376 38.5469 3.04697 38.6094 3.07822C38.6562 3.1251 38.5312 3.6251 38.3281 4.20322C38.0938 4.85947 37.9062 5.7501 37.8594 6.53135C37.7656 7.98447 37.9844 8.90635 38.8594 10.7813C40.1875 13.6251 40.4531 15.047 39.9062 16.2345C39.6406 16.7813 36.25 20.6876 32.1406 25.1876C28.8125 28.8282 22.7656 34.8438 20.5469 36.7345C18.8594 38.1563 18.6094 38.3126 18.125 38.2813C17.4219 38.2188 17.1875 37.7657 17.1875 36.422C17.1875 34.2501 17.9531 32.3595 19.5938 30.5157C20.3906 29.6251 20.4688 29.2501 20 28.7813C19.5 28.2813 19.0625 28.3907 18.25 29.2657L17.5156 30.047L17.4063 29.6407C17.2344 28.9376 17.4531 23.3126 17.7188 21.9063C19.2344 13.8282 22.625 8.65635 28.7031 5.15635C30.8281 3.9376 32.9844 3.14072 34.9219 2.85947C36.2344 2.67197 36.3594 2.67197 37.4844 2.85947ZM44.8281 2.84385C48.8906 3.35947 54.0312 6.28135 57.0469 9.79697C59.7188 12.9063 61.7031 17.797 62.4062 22.9688C62.6562 24.6876 62.75 28.9845 62.5625 29.672C62.4688 30.0001 62.4219 29.9845 61.7344 29.2501C60.9375 28.3907 60.5 28.2813 60 28.7813C59.5156 29.2657 59.6094 29.6095 60.5312 30.6876C60.9844 31.2345 61.5469 31.9688 61.7812 32.3438C62.625 33.7032 63.1094 36.8595 62.6094 37.8438C62.4688 38.1251 62.2656 38.2501 61.875 38.2813C61.3906 38.3126 61.1406 38.1563 59.4531 36.7345C55.7188 33.547 46.0156 23.4532 41.4531 17.9845C41.2812 17.7657 41.2969 17.6095 41.6406 16.8907C42.3906 15.2813 42.0781 13.0782 40.7656 10.4532C39.4531 7.85947 39.375 6.51572 40.4219 3.90635C40.6719 3.26572 41.1094 3.0626 42.5625 2.84385C43 2.78135 43.3906 2.71885 43.4375 2.70322C43.4844 2.70322 44.1094 2.76572 44.8281 2.84385ZM42.0312 21.5157C43.1094 22.7188 45.0469 24.8751 46.3594 26.297L48.7344 28.8907L47.6094 28.9845C45.5781 29.1563 44.2344 29.797 44.4531 30.4845C44.6094 30.9845 44.9844 31.0938 46.1719 30.9532C46.7812 30.8907 48 30.8282 48.9062 30.8282H50.5469L53.25 33.4845L55.9375 36.1407V37.2345C55.9375 40.4376 55 45.2188 53.7969 48.0782C52.4375 51.3126 49.9688 54.172 46.625 56.3751C45.0938 57.3907 43.6562 58.047 41.8906 58.5626C40.25 59.0313 39.7344 59.0313 38.0625 58.547C33.3281 57.172 28.8281 53.422 26.6562 49.0313C25.1875 46.0313 24.0625 40.9376 24.0625 37.2345V36.1563L26.7656 33.4845L29.4531 30.8126L31.0938 30.8282C32 30.8282 33.2344 30.8907 33.8281 30.9532C35.0625 31.0938 35.25 31.0626 35.4844 30.6251C35.8906 29.8751 34.5469 29.172 32.3438 28.9845L31.2656 28.8907L33.7969 26.1407C35.1875 24.6251 37.1406 22.4532 38.125 21.3282C39.1094 20.1876 39.9688 19.2813 40.0156 19.297C40.0625 19.3126 40.9688 20.3126 42.0312 21.5157ZM22.1875 38.2813C22.1875 38.6876 22.1406 38.7188 21.7344 38.6563L21.2656 38.5938L21.6875 38.2188C21.9219 38.0157 22.125 37.8438 22.1563 37.8438C22.1719 37.8438 22.1875 38.047 22.1875 38.2813ZM58.7188 38.5626C58.75 38.5782 58.5469 38.6251 58.2812 38.6563C57.8438 38.7188 57.8125 38.6876 57.8125 38.2657V37.797L58.25 38.172C58.4844 38.3751 58.6875 38.5626 58.7188 38.5626ZM20.7344 40.2188C20.875 40.3751 21.1719 40.5001 21.4063 40.5001C22.2031 40.5001 22.3594 40.7813 22.8281 43.0782C23.0625 44.2813 23.2344 45.2813 23.2031 45.3126C23.1719 45.3438 22.7813 45.1876 22.3594 44.9376C20.8281 44.1095 19.4219 42.2345 19.1406 40.6407C19.0469 40.1251 19.0781 40.0626 19.5156 39.8751C19.7813 39.7813 20.0781 39.5782 20.1875 39.4376C20.3594 39.2345 20.3906 39.2501 20.4375 39.5782C20.4688 39.7813 20.6094 40.0782 20.7344 40.2188ZM60.8281 40.0313C61.0469 40.0313 60.8125 41.0782 60.3906 42.0313C59.9219 43.0626 58.6719 44.3751 57.6406 44.9376C57.2188 45.1876 56.8281 45.3438 56.7969 45.3126C56.7656 45.2813 56.9375 44.2813 57.1719 43.0782C57.6406 40.797 57.7969 40.5001 58.5781 40.5001C59.0781 40.5001 59.5312 40.0782 59.5312 39.6251V39.2657L60.0938 39.6407C60.4062 39.8595 60.7344 40.0313 60.8281 40.0313Z" fill="#377D3C"/>
<path d="M33.75 11.6096C30.4062 12.469 26.6562 15.0627 22.4687 19.3908C20.3437 21.5783 20.1094 22.0002 20.75 22.5783C21.3281 23.094 21.6406 22.9065 23.7031 20.7971C28.3594 16.0315 32.2031 13.5158 35.375 13.2033C36.4531 13.1096 36.875 12.8283 36.875 12.219C36.875 11.2502 35.875 11.0471 33.75 11.6096Z" fill="#377D3C"/>
<path d="M43.3906 11.5626C42.9844 12.0001 43.0937 12.7032 43.5937 12.9376C43.8125 13.047 44.4844 13.2032 45.0781 13.297C48.0625 13.7345 51.2969 15.8439 55.6875 20.2189C58.4219 22.9376 58.75 23.1407 59.2656 22.5626C59.8437 21.922 59.6406 21.5626 57.3906 19.2345C52.6406 14.3595 48.2969 11.6407 44.7656 11.3439C43.7969 11.2501 43.6406 11.2814 43.3906 11.5626Z" fill="#377D3C"/>
<path d="M27.5 35.6095C26.8125 35.9689 26.7187 36.6407 27.3437 36.7189C27.5625 36.7345 28.375 37.0782 29.1406 37.4689C31.4062 38.5939 33.2031 38.7189 34.6562 37.8126C35.1719 37.5001 35.3437 36.8907 34.9687 36.6564C34.8594 36.5939 34.0312 36.5314 33.125 36.5157C31.6562 36.5157 31.3594 36.4532 30.2344 36.0157C28.5469 35.3282 28.1562 35.2814 27.5 35.6095Z" fill="#377D3C"/>
<path d="M51.1719 35.5001C50.9219 35.5782 50.0781 35.8595 49.2969 36.1251C48.0156 36.5939 47.7812 36.6251 46.5312 36.5626C45.6719 36.5001 45.1094 36.547 45.0156 36.6407C44.6875 36.9689 44.8281 37.5001 45.3594 37.8126C46.7969 38.7189 48.5937 38.5939 50.8594 37.4689C51.6406 37.0782 52.4375 36.7345 52.6562 36.7189C53.1875 36.6564 53.2656 36.0626 52.7812 35.7501C52.2812 35.4376 51.7344 35.3439 51.1719 35.5001Z" fill="#377D3C"/>
<path d="M37.6562 42.2188C37.2187 42.6562 37.2656 43.1719 37.7812 43.6719C39 44.8438 41 44.8438 42.2344 43.6719C42.7344 43.1719 42.7812 42.6562 42.3437 42.2188C41.9375 41.8125 41.7812 41.8281 41.0156 42.2969C40.6719 42.5 40.2187 42.6719 40 42.6719C39.7812 42.6719 39.3281 42.5 38.9844 42.2969C38.2187 41.8281 38.0625 41.8125 37.6562 42.2188Z" fill="#377D3C"/>
<path d="M34.9844 47.9688C34.6406 48.2031 34.5938 48.6719 34.8906 48.9062C35.2344 49.1875 36.7656 49.5625 37.6094 49.5625C38.0781 49.5625 38.7969 49.6719 39.2344 49.8125C39.9375 50.0469 40.0625 50.0469 40.7656 49.8125C41.2031 49.6719 41.9219 49.5625 42.3906 49.5625C43.2344 49.5625 44.7656 49.1875 45.125 48.9062C45.375 48.6875 45.3594 48.2344 45.0938 48.0156C44.9063 47.8594 44.0938 47.8281 40 47.8281C39.7031 47.8281 38.5156 47.8125 37.3594 47.7969C35.8594 47.7812 35.1875 47.8281 34.9844 47.9688Z" fill="#377D3C"/>
<path d="M38.4063 51.3125C37.6094 52.1094 38.4844 53 40.0313 53C41.1094 53 41.875 52.5625 41.875 51.9531C41.875 51.1406 41.7031 51.0625 40.125 51.0469C38.9375 51.0312 38.6406 51.0781 38.4063 51.3125Z" fill="#377D3C"/>
<path d="M71.6406 19.8595C70.8125 20.2345 70.3438 20.7189 69.9844 21.5002C69 23.6564 70.5469 26.0158 72.9688 26.0314C75.0469 26.047 76.6562 23.9845 76.0938 22.0002C75.5625 20.0627 73.4219 19.0314 71.6406 19.8595ZM73.9219 21.8908C74.1719 22.1408 74.375 22.5002 74.375 22.6877C74.375 23.2345 73.9531 23.8752 73.4688 24.0783C72.0938 24.6564 70.9219 22.9064 71.9688 21.8439C72.5469 21.2658 73.3125 21.297 73.9219 21.8908Z" fill="#377D3C"/>
<path d="M6.46875 24.6252C5.53125 24.9221 4.89062 25.4689 4.45312 26.3439C3.82812 27.5939 3.98437 28.9533 4.89062 29.9846C6.23437 31.5158 8.6875 31.5002 9.95312 29.9533C11.4844 28.0939 10.6562 25.3127 8.375 24.6408C7.45312 24.3596 7.3125 24.3596 6.46875 24.6252ZM8.04687 26.5314C9.4375 27.1877 8.9375 29.2502 7.39062 29.2502C6.73437 29.2502 5.9375 28.5314 5.9375 27.9377C5.9375 27.3127 6.28125 26.7189 6.79687 26.5002C7.40625 26.2346 7.4375 26.2346 8.04687 26.5314Z" fill="#377D3C"/>
<path d="M5.07812 37.0156C3.90625 37.4219 2.60937 38.7656 2.26562 39.9531C1.92187 41.0937 2.03125 42.125 2.57812 43.2656C4.15625 46.4687 8.85938 46.4844 10.4688 43.2656C11.5938 41.0156 10.75 38.3906 8.53125 37.2656C7.51562 36.75 6.15625 36.6562 5.07812 37.0156ZM7.45312 38.8594C8.57812 39.3281 9.09375 40.1094 9.09375 41.3125C9.09375 42.7656 8.01562 43.7812 6.4375 43.7812C5.4375 43.7812 4.71875 43.3125 4.23437 42.3281C3.75 41.3594 3.875 40.4219 4.57812 39.6094C5.42187 38.6562 6.375 38.4062 7.45312 38.8594Z" fill="#377D3C"/>
<path d="M72.8906 40.0158C72.1719 40.2033 71.8281 40.422 71.2031 41.1095C69.4062 43.0939 70.6875 46.3439 73.3437 46.5626C74.4062 46.6408 75.1875 46.3908 75.9531 45.7033C77.5781 44.2345 77.3125 41.547 75.4219 40.4376C74.6719 40.0001 73.625 39.8283 72.8906 40.0158ZM74.375 41.9845C75.2969 42.4533 75.4375 43.5158 74.7031 44.2658C73.9531 45.0158 72.8906 44.8595 72.4062 43.922C72.1094 43.3439 72.2344 42.6876 72.7031 42.2658C73.3125 41.7033 73.7187 41.6408 74.375 41.9845Z" fill="#377D3C"/>
<path d="M62.1094 52.7344C60.7031 53.2031 59.7188 54.0313 59.0469 55.3438C58.5313 56.3281 58.5156 58.3594 59.0156 59.4375C60.375 62.4219 64.4688 63.1563 66.7813 60.8438C67.8125 59.8281 68.2031 58.8906 68.2031 57.4531C68.2031 56 67.875 55.1406 66.9531 54.125C65.8125 52.8594 63.6406 52.2344 62.1094 52.7344ZM64.5 54.6406C66.4688 55.4688 67.0156 57.8906 65.5469 59.4219C64.6719 60.3594 63.1875 60.625 62.0625 60.0469C61.3438 59.6875 61.0156 59.3281 60.7031 58.5781C60.0625 57.0313 60.7031 55.4219 62.2656 54.7031C63.0313 54.3438 63.7344 54.3281 64.5 54.6406Z" fill="#377D3C"/>
<path d="M15.2812 57.5158C14.0938 57.9064 13.2812 59.0158 13.2812 60.2658C13.2812 62.7658 16.0938 63.9689 17.9688 62.2814C19.7969 60.6252 18.75 57.6877 16.2656 57.4377C15.9531 57.4064 15.5156 57.4533 15.2812 57.5158ZM16.7188 59.5627C17.1562 60.0002 17.1094 60.5627 16.6094 60.9533C15.9375 61.4846 15.1562 61.0627 15.1562 60.1721C15.1562 59.7033 15.6406 59.2502 16.125 59.2502C16.2812 59.2502 16.5469 59.3908 16.7188 59.5627Z" fill="#377D3C"/>
</g>
<defs>
<clipPath id="clip0_26_47">
<rect width="80" height="80" fill="white" transform="translate(0 0.5)"/>
</clipPath>
</defs>
</svg>
