<svg width="80" height="81" viewBox="0 0 80 81" fill="none" xmlns="http://www.w3.org/2000/svg">
<g clip-path="url(#clip0_24_23)">
<path d="M52.4531 3.51558C47.2344 8.76558 42.1562 16.5468 38.4375 25.0312C38.0781 25.8437 37.7344 26.5781 37.6562 26.6562C37.5 26.8125 36.2344 25.9687 35.7969 25.4062C35.3437 24.8281 35.3906 24.4843 36 24L36.5156 23.5781L36.125 22.5937C35.9062 22.0468 35.6562 21.5937 35.5625 21.5937C35.2969 21.5937 34.5 22.125 34 22.625C32.3438 24.2812 33.1094 26.7656 35.8125 28.4218C36.4531 28.8125 36.7187 29.0625 36.6562 29.2343C36.3281 30.2968 34.5 35.4218 34.4531 35.4843C34.2031 35.7343 32.4062 34.2968 32.1719 33.6562C31.9844 33.1875 32.3438 32.4843 32.9688 32.125L33.4219 31.8437L32.8594 30.7968L32.2969 29.7343L31.625 30.2031C30.4063 31.0312 29.7969 32.0781 29.7813 33.3125C29.7656 34.9062 30.9531 36.4375 33.0156 37.4843C33.7031 37.8281 33.7812 37.9062 33.6875 38.2812C33.6406 38.5156 33.3594 39.7968 33.0469 41.125C32.75 42.4531 32.5 43.7031 32.5 43.8906C32.5 44.0781 32.4219 44.2812 32.3438 44.3281C32.1094 44.4687 30.9063 43.7187 30.3281 43.0781C29.7344 42.4062 29.7031 41.8437 30.2031 41.0937L30.5781 40.5625L29.8125 39.7343L29.0469 38.8906L28.6719 39.25C27.6719 40.1875 27.2813 41.8125 27.6875 43.2187C27.9531 44.1406 29.625 45.7656 30.9844 46.4375C31.9688 46.9218 32.0469 47 31.9531 47.3593C31.9062 47.5781 31.8125 49.4218 31.7656 51.4375C31.6094 57.7656 32.3281 60.7343 34.5938 63.125C37.375 66.0781 41.8906 66.0937 44.8437 63.1562C45.8594 62.1406 46.7656 60.4843 47.125 59C47.5625 57.2031 47.3906 51.4062 46.7812 47.5L46.7031 46.9375L47.7187 46.4531C49.8281 45.4375 51.25 43.6406 51.25 41.9687C51.25 41.0781 50.7187 39.8593 50.0625 39.2343L49.6719 38.875L48.9219 39.7187L48.1719 40.5781L48.5312 41.125C49.0469 41.8593 49.0156 42.4062 48.4219 43.0781C47.9375 43.625 46.6094 44.5156 46.4844 44.375C46.3906 44.2968 45.7344 38.6093 45.8125 38.5625C45.8437 38.5312 46.3906 38.2656 47.0469 37.9687C49.1719 36.9687 50.2031 35.7187 50.2187 34.0937C50.2187 33.375 49.9531 32.4843 49.6094 32.0937C49.5781 32.0625 49.1406 32.3281 48.625 32.7031C47.7656 33.2968 47.6875 33.3906 47.8281 33.7343C48.0469 34.2968 47.7031 34.8593 46.8125 35.4531C45.5156 36.3281 45.5156 36.3125 45.4375 32.7812L45.3906 30.4687L46.5625 30.125C48.7812 29.4687 49.7969 28.6562 50.1406 27.2656C50.3125 26.6406 50.1875 25.625 49.9062 25.1562C49.8594 25.0937 49.3906 25.2812 48.8594 25.5781C48.0625 26.0156 47.8906 26.1875 47.8906 26.5312C47.875 26.7656 47.7187 27.0625 47.5 27.2343C47.0781 27.5625 45.625 28.0468 45.4844 27.9062C45.3281 27.75 45.9219 22.625 46.3281 20.7343C47.6406 14.4218 50.2812 9.32808 54.5312 4.82808L55.9687 3.31246L55.6562 2.89058C55.4844 2.64058 55.125 2.24996 54.875 1.99996L54.4062 1.56246L52.4531 3.51558ZM44.0781 20.125C43.6875 21.9062 43.3281 24.5156 43.1875 26.5625L43.0781 28.1718L42.1406 28.0625C41.625 28 40.8906 27.875 40.5156 27.7812L39.8437 27.6093L41.0156 25.0468C42.25 22.3437 44.2031 18.5625 44.3125 18.6718C44.3437 18.7031 44.2344 19.3593 44.0781 20.125ZM40.1875 30.0937C40.7344 30.2187 41.6094 30.3593 42.125 30.4218L43.0937 30.5312L43.1562 33.5156C43.2031 35.1718 43.2031 36.5625 43.1719 36.625C43.0781 36.8125 39.0156 36.7656 37.8125 36.5781C36.5469 36.3593 36.5781 36.5781 37.4219 34.0937C38.3594 31.3593 38.9375 29.875 39.0625 29.875C39.1406 29.875 39.6406 29.9687 40.1875 30.0937ZM37.7187 38.9375C38.8125 39.1093 43.0312 39.1718 43.2812 39.0156C43.4531 38.9062 43.5156 39.2968 43.8281 42.375C43.9687 43.7031 44.0937 44.9062 44.1094 45.0312C44.1562 45.3906 42.375 45.6718 39.6875 45.7031C36.6875 45.7343 34.6875 45.4687 34.6875 45C34.6875 44.4843 35.7187 39.6718 36.0156 38.8125C36.0625 38.7031 36.2187 38.6406 36.3594 38.6875C36.5156 38.7343 37.125 38.8437 37.7187 38.9375ZM37.4687 48.0312C39.2969 48.2031 41.2812 48.125 43.8437 47.75L44.4687 47.6562L44.6562 49.5C45.375 56.3906 45.2031 58.7343 43.8281 60.75C43.25 61.5937 42.7969 61.9687 41.7187 62.5468C41.1406 62.8593 40.7812 62.9218 39.6875 62.9218C38.5469 62.9218 38.25 62.8593 37.5625 62.5C36.0625 61.7187 34.9531 60.0156 34.4375 57.75C34.1406 56.4687 33.9688 51.3906 34.1406 49.1718L34.25 47.6562L34.9062 47.75C35.25 47.7968 36.4062 47.9218 37.4687 48.0312Z" fill="#377D3C"/>
<path d="M2.34374 49.1406C1.57811 49.3906 0.421865 50.5938 0.18749 51.375C0.0468645 51.8594 -1.04904e-05 55.375 -1.04904e-05 65.7188V79.4062H35.3125H70.625V78.2344V77.0625H36.4844H2.34374V67.6875V58.3125L14.875 58.3438L27.4062 58.3906L27.5937 59.3281C28.25 62.5781 30.0469 65.6719 32.3125 67.4531C33.4062 68.3281 35.3594 69.3125 36.7187 69.6719C37.9375 70 41.2656 70.0469 42.3437 69.7344C46.0781 68.7031 48.75 66.625 50.4531 63.4688C51.0312 62.375 51.7187 60.2812 51.9531 58.8906L52.0469 58.3125H64.8437H77.6562V67.6875V77.0625H75.3125H72.9687V78.2344V79.4062H76.4844H80V65.7188C80 55.375 79.9531 51.8594 79.8125 51.375C79.5625 50.5312 78.4062 49.375 77.5625 49.125C77.0781 48.9844 73.5312 48.9375 63.125 48.9375H49.3281L49.4375 49.9844C49.875 54.2188 49.8281 57.9688 49.3125 59.8906C48 64.7969 43.9219 67.9062 39.125 67.6406C34.9844 67.4062 31.7812 64.7812 30.3437 60.4688C29.6562 58.3906 29.3594 55.8906 29.3594 52.0938V48.9375H20.5469H11.7187V50.1094V51.2812H19.3594H27.0156V53.625L27.0312 55.9688H14.6875H2.34374V54.0156C2.34374 52.1406 2.35936 52.0312 2.73436 51.6719C3.10936 51.2812 3.12499 51.2812 6.24999 51.2812H9.37499V50.1094V48.9375L6.14061 48.9531C4.23436 48.9688 2.65624 49.0469 2.34374 49.1406ZM77.2656 51.6719C77.6406 52.0312 77.6562 52.1406 77.6562 54.0156V55.9688H64.9375H52.2187L52.125 54.6719C52.0781 53.9688 52.0156 52.9219 51.9687 52.3281L51.9062 51.2812H64.4062H76.8906L77.2656 51.6719Z" fill="#377D3C"/>
<path d="M68.2812 61.8281V63H69.4531H70.625V61.8281V60.6562H69.4531H68.2812V61.8281Z" fill="#377D3C"/>
<path d="M72.9688 61.8281V63H74.1406H75.3125V61.8281V60.6562H74.1406H72.9688V61.8281Z" fill="#377D3C"/>
</g>
<defs>
<clipPath id="clip0_24_23">
<rect width="80" height="80" fill="white" transform="translate(0 0.5)"/>
</clipPath>
</defs>
</svg>
