<svg width="80" height="80" viewBox="0 0 80 80" fill="none" xmlns="http://www.w3.org/2000/svg">
<g clip-path="url(#clip0_52_209)">
<path d="M47.4375 8.15608C47.0625 8.2967 46.7031 8.9217 44.6875 13.0311C40.8437 20.8905 38.1562 26.828 35.5469 33.2811C32.125 41.7811 30.7656 46.5936 30.75 50.3905C30.7344 52.0155 30.7812 52.4373 31.1406 53.5155C32.6562 58.078 37.2656 60.7498 41.9531 59.7655C45.7344 58.9686 48.6094 55.8592 49.2187 51.9061C49.4219 50.6092 49.0625 47.5311 48.1406 42.7967C47.25 38.2342 47.125 36.9061 47.1406 32.0311C47.1562 25.7498 47.8437 18.2498 49.0625 11.0623C49.375 9.21858 49.3437 8.71858 48.875 8.32795C48.5469 8.0467 47.9219 7.96858 47.4375 8.15608ZM45 21.4842C44.4687 26.703 44.2969 31.5467 44.5156 35.3436C44.7031 38.8592 44.8906 40.2186 45.625 43.9842C46.3437 47.578 46.7031 50.5467 46.5625 51.6092C46.1719 54.4061 43.8906 56.7186 41.0625 57.203C37.4531 57.8123 33.9531 55.2186 33.4375 51.578C32.9375 48.0311 35.1094 40.8123 40.2187 29.078C42.5937 23.6248 45.2187 17.9373 45.2812 18.1873C45.3125 18.2967 45.1875 19.7811 45 21.4842Z" fill="#377D3C"/>
<path d="M-1.04904e-05 50.7031V52.0312H12.7187H25.4219L25.5312 52.8906C25.875 55.7969 27.5781 59.0156 30.0156 61.3437C31.2656 62.5312 32.1562 63.125 33.7812 63.9062C35.9531 64.9531 37.2031 65.2031 40 65.2031C42.7969 65.2031 44.0469 64.9531 46.2187 63.9062C47.8437 63.125 48.7344 62.5312 49.9844 61.3437C52.4219 59.0156 54.125 55.7969 54.4687 52.8906L54.5781 52.0312H67.2812H80V50.7031V49.375H66.0469H52.0781L51.9687 50.9687C51.9219 51.8594 51.7969 52.8906 51.7187 53.2812C50.75 57.4844 47.4062 61 43.2031 62.2187C41.4219 62.7187 38.5781 62.7187 36.7969 62.2187C32.5937 61 29.25 57.4844 28.2812 53.2812C28.2031 52.8906 28.0781 51.8594 28.0312 50.9687L27.9219 49.375H13.9531H-1.04904e-05V50.7031Z" fill="#377D3C"/>
<path d="M18.9062 54.8281C17.7344 55.2031 16.7344 56.1094 16.2969 57.1562C15.9531 57.9844 16.0156 59.5781 16.4062 60.3594C17.2031 61.9219 18.2812 62.5781 20 62.5781C21.7187 62.5781 22.7969 61.9219 23.5937 60.3594C23.9844 59.5781 24.0469 57.9844 23.7031 57.1562C23.375 56.3906 22.5625 55.5 21.8125 55.125C21.125 54.7812 19.5469 54.6094 18.9062 54.8281ZM20.8594 57.7344C21.6719 58.5312 21.1094 60 20 60C19.3125 60 18.75 59.3906 18.75 58.6719C18.75 57.9531 19.3125 57.3437 20 57.3437C20.2969 57.3437 20.625 57.4844 20.8594 57.7344Z" fill="#377D3C"/>
<path d="M58.9062 54.8281C57.7344 55.2031 56.7344 56.1094 56.2969 57.1562C55.9531 57.9844 56.0156 59.5781 56.4062 60.3594C57.2031 61.9219 58.2812 62.5781 60 62.5781C61.7187 62.5781 62.7969 61.9219 63.5937 60.3594C63.9844 59.5781 64.0469 57.9844 63.7031 57.1562C63.375 56.3906 62.5625 55.5 61.8125 55.125C61.125 54.7812 59.5469 54.6094 58.9062 54.8281ZM60.8594 57.7344C61.6719 58.5312 61.1094 60 60 60C59.3125 60 58.75 59.3906 58.75 58.6719C58.75 57.9531 59.3125 57.3437 60 57.3437C60.2969 57.3437 60.625 57.4844 60.8594 57.7344Z" fill="#377D3C"/>
<path d="M6.53125 57.5625C3.15625 58.5469 1.625 62.6562 3.5625 65.5469C5.29687 68.0937 8.4375 68.7187 10.9687 67.0469C14.3437 64.7812 13.9062 59.5469 10.1875 57.8594C9.15625 57.375 7.60937 57.25 6.53125 57.5625ZM9.23437 60.3594C10.2031 60.875 10.6562 61.6875 10.5781 62.8281C10.5156 63.875 10.0937 64.5625 9.21875 65C8.14062 65.5469 7.04687 65.375 6.14062 64.5C5.14062 63.5312 5.07812 62.1094 5.96875 61.0312C6.84375 59.9687 8.01562 59.7187 9.23437 60.3594Z" fill="#377D3C"/>
<path d="M70.3594 57.6404C67.6562 58.5622 66.1719 61.3279 66.8906 64.1091C67.2812 65.6716 68.9687 67.3591 70.5625 67.781C73.5781 68.5935 76.6406 66.6716 77.1875 63.6404C77.9062 59.6716 74.1094 56.3435 70.3594 57.6404ZM73.0312 60.2185C73.75 60.5154 74.5 61.4841 74.625 62.281C74.9375 64.3904 72.7031 65.9841 70.7812 64.9997C69.9062 64.5622 69.4844 63.8747 69.4219 62.8279C69.3437 61.6872 69.7969 60.8747 70.7656 60.3591C71.5469 59.9529 72.2812 59.906 73.0312 60.2185Z" fill="#377D3C"/>
<path d="M26.3281 64.4374C24.875 65.1249 24.0625 66.4061 24.0625 68.0468C24.0625 70.2655 25.7813 71.953 28.0625 71.9374C30.2813 71.9218 31.9063 70.2811 31.9375 68.0468C31.9688 65.0936 28.9844 63.1718 26.3281 64.4374ZM28.8594 67.0624C29.3125 67.578 29.3906 67.8905 29.1875 68.453C29 68.9843 28.1875 69.4374 27.7031 69.2655C27.125 69.0624 26.7188 68.5468 26.7188 68.0155C26.7188 66.8905 28.1406 66.2655 28.8594 67.0624Z" fill="#377D3C"/>
<path d="M50.3906 64.3593C47.8125 65.5155 47.25 69.1093 49.3281 70.953C50.125 71.6405 50.8594 71.9218 51.9531 71.9374C54.2031 71.953 55.9219 70.2655 55.9375 68.0468C55.9375 65.7655 54.2344 64.0624 51.9531 64.0624C51.375 64.0624 50.7656 64.1874 50.3906 64.3593ZM52.8906 67.1093C53.875 68.078 52.8594 69.6405 51.5469 69.1874C51.0156 68.9999 50.5625 68.1874 50.7344 67.703C51.0781 66.703 52.1875 66.3905 52.8906 67.1093Z" fill="#377D3C"/>
</g>
<defs>
<clipPath id="clip0_52_209">
<rect width="80" height="80" fill="white"/>
</clipPath>
</defs>
</svg>
